<svg width="136" height="20" viewBox="0 0 136 20" fill="none" xmlns="http://www.w3.org/2000/svg">
<path d="M2.92 15H0.32V0.999999H2.92V15ZM7.75672 15H5.23672V5H7.75672V6.92C8.09672 5.7 9.07672 4.8 10.7167 4.8C12.7767 4.8 13.8167 6.16 13.8167 8.16V15H11.2967V8.26C11.2967 7.16 10.7767 6.38 9.57672 6.38C8.39672 6.38 7.75672 7.16 7.75672 8.42V15ZM22.0827 13.58L22.4027 14.46C22.3627 14.48 21.4027 15.16 19.8627 15.16C17.9027 15.16 16.8827 14.22 16.8827 12.54V5.98H15.1427V5H16.8827V2.5L19.4027 1.98V5H22.0227V5.98H19.4027V12.36C19.4027 13.4 19.8027 13.92 20.7227 13.92C21.4827 13.92 22.0827 13.58 22.0827 13.58ZM32.3398 9.32V9.66H25.7198C25.7998 12.14 26.6998 13.56 28.6198 13.56C29.8398 13.56 30.8998 13 31.0998 11.26L32.1998 11.46C31.9198 13.7 30.4798 15.2 27.9398 15.2C25.1998 15.2 23.1798 13.4 23.1798 10.08C23.1798 6.74 25.2598 4.8 27.9798 4.8C30.4198 4.8 32.3398 6.04 32.3398 9.32ZM25.7398 8.84H29.9798C30.0398 6.46 29.2198 5.62 27.9598 5.62C26.6998 5.62 25.8398 6.6 25.7398 8.84ZM36.7997 15H34.2797V0.999999H36.7997V15ZM41.5263 15H39.0063V0.999999H41.5263V15ZM44.9928 3.34C44.1328 3.34 43.5328 2.74 43.5328 1.88C43.5328 1.02 44.1328 0.419999 44.9928 0.419999C45.8728 0.419999 46.4528 1.02 46.4528 1.88C46.4528 2.74 45.8728 3.34 44.9928 3.34ZM46.2528 15H43.7328V5H46.2528V15ZM52.9194 19.22C50.4594 19.22 48.6194 18.18 48.4794 16.3L50.9394 16.02C51.1194 17.86 51.9594 18.4 53.1194 18.4C54.4594 18.4 55.0794 17.52 55.0794 15.78V12.78C54.6994 14.14 53.6594 15 52.1594 15C50.1394 15 48.1994 13.48 48.1994 10C48.1994 6.54 50.0994 4.8 52.2194 4.8C53.7394 4.8 54.6994 5.74 55.0794 7.06V5H57.5794V15.1C57.5794 17.52 56.0794 19.22 52.9194 19.22ZM52.9794 13.7C54.3194 13.7 55.1594 12.54 55.1594 9.92C55.1594 7.28 54.3194 6.1 52.9794 6.1C51.6394 6.1 50.8194 7.2 50.8194 9.9C50.8194 12.6 51.6394 13.7 52.9794 13.7ZM68.6875 9.32V9.66H62.0675C62.1475 12.14 63.0475 13.56 64.9675 13.56C66.1875 13.56 67.2475 13 67.4475 11.26L68.5475 11.46C68.2675 13.7 66.8275 15.2 64.2875 15.2C61.5475 15.2 59.5275 13.4 59.5275 10.08C59.5275 6.74 61.6075 4.8 64.3275 4.8C66.7675 4.8 68.6875 6.04 68.6875 9.32ZM62.0875 8.84H66.3275C66.3875 6.46 65.5675 5.62 64.3075 5.62C63.0475 5.62 62.1875 6.6 62.0875 8.84ZM73.1473 15H70.6273V5H73.1473V6.92C73.4873 5.7 74.4673 4.8 76.1073 4.8C78.1673 4.8 79.2073 6.16 79.2073 8.16V15H76.6873V8.26C76.6873 7.16 76.1673 6.38 74.9673 6.38C73.7873 6.38 73.1473 7.16 73.1473 8.42V15ZM87.4733 13.58L87.7933 14.46C87.7533 14.48 86.7933 15.16 85.2533 15.16C83.2933 15.16 82.2733 14.22 82.2733 12.54V5.98H80.5333V5H82.2733V2.5L84.7933 1.98V5H87.4133V5.98H84.7933V12.36C84.7933 13.4 85.1933 13.92 86.1133 13.92C86.8733 13.92 87.4733 13.58 87.4733 13.58ZM100.584 15.34C96.8044 15.34 94.0444 12.76 94.0444 8.16C94.0444 3.56 96.7244 0.699999 100.564 0.699999C103.724 0.699999 106.124 2.62 106.144 5.52L103.464 5.78C103.464 3.08 102.304 1.66 100.404 1.66C97.9044 1.66 96.7244 4.22 96.7244 7.76C96.7244 11.68 98.1244 14.28 100.964 14.28C102.964 14.28 104.664 13 104.944 10.04L106.124 10.24C105.784 13.46 103.844 15.34 100.584 15.34ZM110.725 15H108.205V0.999999H110.725V6.92C111.065 5.7 112.045 4.8 113.685 4.8C116.265 4.8 116.785 6.94 116.785 8.16V15H114.265V8.26C114.265 7.16 113.745 6.38 112.545 6.38C111.365 6.38 110.725 7.16 110.725 8.42V15ZM121.647 15.2C119.947 15.2 118.787 14.16 118.787 12.5C118.787 11.04 119.707 10.26 121.347 9.72L123.547 9C124.347 8.7 124.647 8.42 124.647 7.72V7.38C124.647 6.26 124.187 5.6 123.107 5.6C121.627 5.6 121.207 6.88 121.327 8.22L118.947 8.04C118.887 5.98 120.647 4.8 123.187 4.8C125.727 4.8 127.107 5.96 127.107 7.92V12.62C127.107 13.48 127.207 14.42 127.367 15H124.907C124.787 14.68 124.687 14.1 124.647 13.38C124.307 14.4 123.187 15.2 121.647 15.2ZM122.827 13.86C123.967 13.86 124.647 13.08 124.647 11.98V9.22C124.487 9.42 124.187 9.58 123.467 9.88L122.607 10.18C121.607 10.58 121.167 11.12 121.167 12.06C121.167 13.28 121.867 13.86 122.827 13.86ZM135.364 13.58L135.684 14.46C135.644 14.48 134.684 15.16 133.144 15.16C131.184 15.16 130.164 14.22 130.164 12.54V5.98H128.424V5H130.164V2.5L132.684 1.98V5H135.304V5.98H132.684V12.36C132.684 13.4 133.084 13.92 134.004 13.92C134.764 13.92 135.364 13.58 135.364 13.58Z" fill="#EB1700"/>
</svg>
